<svg width="20" height="20" viewBox="0 0 20 20" fill="none" xmlns="http://www.w3.org/2000/svg">
<g clip-path="url(#clip0_2394_735)">
<path d="M15.8899 14.5114C16.2727 14.5114 16.5966 14.8395 16.5966 15.2571C16.5966 15.645 16.2727 15.9432 15.8899 15.9432H4.08158C3.69877 15.9432 3.4043 15.645 3.4043 15.2274C3.4043 14.8395 3.69877 14.5114 4.08158 14.5114H15.8899ZM15.8899 4.96594C16.2727 4.96594 16.5966 5.35373 16.5966 5.71168C16.5966 6.09947 16.2727 6.39777 15.8899 6.39777H4.08158C3.69877 6.39777 3.4043 6.0398 3.4043 5.68186C3.4043 5.29407 3.69877 4.96594 4.08158 4.96594H15.8899ZM15.8899 9.73867C16.2727 9.73867 16.5966 10.0668 16.5966 10.4546C16.5966 10.8722 16.2727 11.1705 15.8899 11.1705H4.08158C3.69877 11.1705 3.4043 10.8722 3.4043 10.4546C3.4043 10.0668 3.69877 9.73867 4.08158 9.73867H15.8899Z" fill="#2D2D2D"/>
</g>
<defs>
<clipPath id="clip0_2394_735">
<rect width="14" height="12" fill="white" transform="translate(3 4)"/>
</clipPath>
</defs>
</svg>
