<svg width="12" height="2" viewBox="0 0 12 2" fill="none" xmlns="http://www.w3.org/2000/svg">
<rect width="12" height="2" fill="#2B2B2B"/>
<g id="Checkbox" clip-path="url(#clip0_9472_18615)">
<rect width="1710" height="3938" transform="translate(-478 -2919)" fill="white"/>
<g id="Page">
<g id="Wrapper">
<rect width="1518" height="240" transform="translate(-382 -125)" fill="#F3F2F1"/>
<g id="DRAG TARGET">
<g id="Row Wrapper">
<g id="ROW">
<g clip-path="url(#clip1_9472_18615)">
<g id="Content">
<g id=".Content Row">
<g id="Cells" clip-path="url(#clip2_9472_18615)">
<rect width="960" height="240" transform="translate(-142 -125)" fill="#F3F2F1"/>
</g>
</g>
</g>
</g>
</g>
</g>
</g>
<g id="Group">
<g id="Frame 3465472">
<g id="Number field">
<g id="Field">
<g clip-path="url(#clip3_9472_18615)">
<g id="Number field/Part">
<mask id="path-5-inside-1_9472_18615" fill="white">
<path d="M-11 -19H23V21H-11V-19Z"/>
</mask>
<path d="M-11 -19H23V21H-11V-19Z" fill="white"/>
<path d="M22 -19V21H24V-19H22Z" fill="#D8D8D8" mask="url(#path-5-inside-1_9472_18615)"/>
<g id="20px/Minus">
<path id="&#239;&#129;&#168;" d="M11.6901 0.9998C11.6901 1.38278 11.3891 1.65634 11.0335 1.65634H0.966597C0.583616 1.65634 0.310059 1.38278 0.310059 1.02716C0.310059 0.644175 0.583616 0.343262 0.966597 0.343262H11.0335C11.3891 0.343262 11.6901 0.644175 11.6901 0.9998Z" fill="#2D2D2D"/>
</g>
</g>
</g>
<path d="M-7 -18.5H109C110.933 -18.5 112.5 -16.933 112.5 -15V17C112.5 18.933 110.933 20.5 109 20.5H-7C-8.93299 20.5 -10.5 18.933 -10.5 17V-15C-10.5 -16.933 -8.933 -18.5 -7 -18.5Z" stroke="#D8D8D8"/>
</g>
</g>
</g>
</g>
</g>
</g>
</g>
<defs>
<clipPath id="clip0_9472_18615">
<rect width="1710" height="3938" fill="white" transform="translate(-478 -2919)"/>
</clipPath>
<clipPath id="clip1_9472_18615">
<rect x="-382" y="-125" width="1200" height="240" rx="8" fill="white"/>
</clipPath>
<clipPath id="clip2_9472_18615">
<rect width="960" height="240" fill="white" transform="translate(-142 -125)"/>
</clipPath>
<clipPath id="clip3_9472_18615">
<path d="M-11 -15C-11 -17.2091 -9.20914 -19 -7 -19H109C111.209 -19 113 -17.2091 113 -15V17C113 19.2091 111.209 21 109 21H-7C-9.20914 21 -11 19.2091 -11 17V-15Z" fill="white"/>
</clipPath>
</defs>
</svg>
