<svg width="20" height="20" viewBox="0 0 20 20" fill="none" xmlns="http://www.w3.org/2000/svg">
<g id="20px/Plus">
<path id="Vector" d="M15.6875 10.0833C15.6875 10.4661 15.3867 10.7395 15.0312 10.7395H10.6562V15.1145C10.6562 15.4973 10.3555 15.7981 10 15.7981C9.61719 15.7981 9.34375 15.4973 9.34375 15.1145V10.7395H4.96875C4.58594 10.7395 4.3125 10.4661 4.3125 10.1106C4.3125 9.72778 4.58594 9.427 4.96875 9.427H9.34375V5.052C9.34375 4.69653 9.61719 4.4231 10 4.4231C10.3555 4.4231 10.6562 4.69653 10.6562 5.052V9.427H15.0312C15.3867 9.427 15.6875 9.72778 15.6875 10.0833Z" fill="#2D2D2D"/>
</g>
</svg>
