<?xml version="1.0" encoding="UTF-8"?>
<svg width="120px" height="107px" viewBox="0 0 120 107" version="1.1" xmlns="http://www.w3.org/2000/svg" xmlns:xlink="http://www.w3.org/1999/xlink">
    <!-- Generator: Sketch 48.1 (47250) - http://www.bohemiancoding.com/sketch -->
    <title>gov_v_pos (1)</title>
    <desc>Created with Sketch.</desc>
    <defs>
        <path d="M88.7630077,34.7856457 C84.0719234,14.8691969 66.0731226,0.0362283465 44.584908,0.0362283465 C22.7342146,0.0362283465 4.49160153,15.3730079 0.180386973,35.7966535 L9.76272031,30.3752677 L15.0461149,34.0458425 C15.0461149,34.0458425 18.1358812,32.6590079 18.7861609,32.2510157 L22.606682,36.2483228 C22.606682,36.2483228 30.8997088,42.7741654 31.1424981,42.7741654 C31.3869923,42.7741654 38.4599349,38.6952598 38.4599349,38.6952598 L44.8024636,34.3718976 L50.3296705,38.3688661 L54.4755019,39.1848504 L58.7028314,42.0401181 C58.7028314,42.0401181 68.9470383,35.2691417 70.57359,34.4531575 C70.57359,34.4531575 75.0443908,36.0854646 75.4505172,36.0035276 C75.8563027,35.9219291 82.8484291,30.538126 82.8484291,30.538126 L88.7630077,34.7856457" id="path-1"></path>
        <path d="M2.83517647,22.6710303 C3.28623529,22.6710303 3.762,22.6814848 4.20635294,22.7058788 L5.87647059,0.165181818 C4.72305882,0.0811969697 3.55764706,0.0372878788 2.382,0.0372878788 C1.62105882,0.0372878788 0.864705882,0.0568030303 0.112941176,0.092 L1.22752941,22.7253939 C1.75870588,22.6905455 2.29482353,22.6710303 2.83517647,22.6710303" id="path-3"></path>
        <path d="M11.988,21.8681212 L5.32733333,0.166924242 C3.59233333,0.749939394 1.90466667,1.44168182 0.27,2.23483333 L9.42966667,22.9686364 C10.253,22.5487121 11.112,22.182803 11.988,21.8681212" id="path-5"></path>
        <path d="M18.9671818,17.7262069 L4.40178182,0.277931034 C2.95087273,1.48172414 1.57630909,2.7737931 0.284654545,4.14482759 L16.8951455,19.7355172 C17.5356182,19.0331034 18.2462182,18.3468966 18.9671818,17.7262069" id="path-7"></path>
        <path d="M22.7439104,11.1349 L2.70335821,0.1841 C1.94161194,1.575 0.842074627,3.955 0.327149254,5.35815 L21.5887612,13.7648 C21.923806,12.86705 22.3086269,11.97665 22.7439104,11.1349" id="path-9"></path>
        <path d="M2.89864865,21.8913538 L12.8854595,2.31676923 C11.1747297,1.50107692 9.40497297,0.783876923 7.58321622,0.1716 L0.116648649,20.8079385 C1.06143243,21.1088308 2.01113514,21.4835077 2.89864865,21.8913538" id="path-11"></path>
        <path d="M2.31281818,17.9266909 L18.8366,3.93610909 C17.5853636,2.62374545 16.2519091,1.38338182 14.8428,0.2232 L0.226618182,16.0183636 C0.963127273,16.6117091 1.65887273,17.2525091 2.31281818,17.9266909" id="path-13"></path>
        <path d="M1.46926154,12.9016216 L21.8615692,5.29240541 C21.2262769,3.50648649 20.4891077,1.77221622 19.6568308,0.096972973 L0.314769231,10.2292432 C0.749353846,11.0970811 1.13790769,11.9751081 1.46926154,12.9016216" id="path-15"></path>
        <path d="M28.8780437,36.5446667 L35.2887233,32.0700598 L40.8753204,36.2068547 L45.065699,37.0513846 L49.3384515,40.0065385 C49.3384515,40.0065385 53.9982573,36.8526923 57.5623883,34.522 C56.9464806,32.8742906 56.158932,31.3127863 55.2193883,29.8620171 L70.6880825,17.6864188 L54.2433107,28.4652137 C52.7660971,26.5042222 50.9979903,24.7822222 49.0041311,23.365094 L58.7001117,6.4625812 L47.6130825,22.4487265 C45.5458107,21.1892906 43.2745,20.2420855 40.8591214,19.672641 L43.6357039,0.213760684 L39.2243981,19.3502479 C38.0149854,19.1557607 36.7748981,19.0534359 35.5113738,19.0534359 C34.1665097,19.0534359 32.8478398,19.1697778 31.5643252,19.3894957 L27.1437136,0.213760684 L29.928568,19.7315128 C27.5352476,20.3219829 25.2842718,21.2825043 23.2390583,22.5528034 L12.0793058,6.4625812 L21.8459417,23.4873932 C19.8865485,24.9066239 18.1501505,26.6233675 16.6991311,28.572094 L0.0920242718,17.6864188 L15.7209854,29.9888718 C14.820733,31.398641 14.0617913,32.910735 13.4648398,34.5034274 C15.3966602,36.0551197 21.2769078,40.766265 21.4819806,40.766265 C21.7291019,40.766265 28.8780437,36.5446667 28.8780437,36.5446667" id="path-17"></path>
    </defs>
    <g id="1.0---Login" stroke="none" stroke-width="1" fill="none" fill-rule="evenodd" transform="translate(-128.000000, -143.000000)">
        <g id="gov_v_pos-(1)" transform="translate(128.000000, 143.000000)">
            <path d="M18.5251035,75.7112991 C18.5251035,76.6301796 18.5796942,77.9318087 19.096941,78.4935046 C19.6145289,79.0800543 20.4313421,79.2082289 21.2481553,79.2082289 C23.6709583,79.2082289 25.5222651,78.1874478 25.5222651,75.6346074 C25.5222651,73.6178989 24.4331808,71.2699248 20.1044804,71.2699248 C18.6342849,71.2699248 18.5251035,71.4236633 18.5251035,71.9335213 L18.5251035,75.7112991 Z M18.5251035,69.7889933 C18.5251035,70.5040727 18.5523989,70.5552005 19.9410495,70.5040727 C22.7180096,70.401817 24.2158417,69.63632 24.2158417,67.237218 C24.2158417,64.7355054 22.2280582,63.791416 20.1590711,63.791416 C19.5599383,63.791416 19.1515317,63.8418338 18.9065559,63.9440894 C18.6342849,64.0207811 18.5251035,64.1489557 18.5251035,64.6076859 L18.5251035,69.7889933 Z M16.2926855,66.3950292 C16.2926855,64.5061404 16.1647386,64.0051587 14.9395188,63.9036132 L14.0875629,63.8418338 C13.9486978,63.7271512 13.9879349,63.215873 14.1148582,63.2041562 C15.5843713,63.0678154 17.4363604,63 19.9683449,63 C21.6835161,63 23.3171424,63.1271094 24.5427034,63.7147243 C25.7133325,64.2505013 26.6113493,65.2712824 26.6113493,66.9052423 C26.6113493,68.7430033 25.4680156,69.6874478 23.8343892,70.401817 C23.8343892,70.6571011 24.0524108,70.7341479 24.351636,70.7845656 C25.8218315,71.0405597 28,72.3159148 28,75.0473475 C28,78.0088555 25.6587418,80 20.7575215,80 C19.9683449,80 18.6342849,79.9225982 17.4906099,79.9225982 C16.2926855,79.9225982 15.3670321,79.9747911 14.3594927,80 C14.196403,79.9225982 14.1418124,79.5146408 14.3052432,79.3609023 L14.7955359,79.2842105 C16.2380948,79.0544904 16.2926855,78.7739975 16.2926855,76.0940476 L16.2926855,66.3950292 Z" id="Fill-1" fill="#FFFFFF"></path>
            <path d="M48.0583284,69.2587594 C48.0583284,67.0306853 48.0125032,66.6733172 46.6576259,66.5682291 L46.0831256,66.525783 C45.9453129,66.4419179 45.9914751,66.0640113 46.1292878,66 C47.2776145,66.042446 48.0583284,66.0640113 49.0230172,66.0640113 C49.9418807,66.0640113 50.7222577,66.042446 51.8709214,66 C52.0087341,66.0640113 52.0545593,66.4419179 51.9167466,66.525783 L51.3425833,66.5682291 C49.987706,66.6733172 49.9418807,67.0306853 49.9418807,69.2587594 L49.9418807,76.7422675 C49.9418807,78.9699993 49.987706,79.2640407 51.3425833,79.4115749 L51.9167466,79.474217 C52.0545593,79.5584244 52.0087341,79.936331 51.8709214,80 C50.7222577,79.957554 49.9418807,79.936331 49.0230172,79.936331 C48.0583284,79.936331 47.2776145,79.957554 46.1292878,80 C45.9914751,79.936331 45.9453129,79.6005281 46.0831256,79.474217 L46.6576259,79.4115749 C48.0125032,79.2640407 48.0583284,78.9699993 48.0583284,76.7422675 L48.0583284,69.2587594" id="Fill-2" fill="#FFFFFF"></path>
            <path d="M60.8603609,76.9220146 C60.8603609,79.0341777 60.9036602,79.3355876 62.1665003,79.436822 L62.8633807,79.4967764 C62.9939605,79.5773708 62.9506612,79.9390628 62.8200813,80 C61.5787205,79.9593752 60.8388817,79.9390628 59.9674403,79.9390628 C59.0966807,79.9390628 58.3346809,79.9593752 56.941261,80 C56.8106811,79.9390628 56.7670409,79.5976832 56.941261,79.4967764 L57.725081,79.436822 C58.9661009,79.3355876 59.0748606,79.0341777 59.0748606,76.9220146 L59.0748606,67.9288589 C59.0748606,67.3053989 59.0748606,67.2857418 58.4216204,67.2857418 L57.2238999,67.2857418 C56.2880208,67.2857418 55.0903003,67.3253837 54.5461608,67.7879825 C54.0235005,68.2305965 53.8059811,68.6738657 53.5666415,69.176434 C53.3920805,69.2973256 53.0876215,69.1964188 53,69.0355576 C53.3484402,68.1306725 53.6754012,66.8428002 53.8274602,66.037839 C53.8932616,65.9978694 54.1762414,65.9778846 54.2413608,66.037839 C54.3722816,66.6812838 55.0903003,66.6619542 56.0923216,66.6619542 L64.9100407,66.6619542 C66.0856002,66.6619542 66.2819813,66.6213294 66.6086014,66.0984486 C66.7170202,66.0581514 66.9567007,66.0784638 67,66.158403 C66.7610014,66.9836766 66.6086014,68.6129284 66.6737209,69.2170588 C66.5867813,69.37792 66.21618,69.37792 66.1077612,69.2570284 C66.0423009,68.7534772 65.8899009,68.0094533 65.5632808,67.7879825 C65.0620997,67.4456201 64.2356623,67.2857418 63.0376008,67.2857418 L61.4921219,67.2857418 C60.8388817,67.2857418 60.8603609,67.3053989 60.8603609,67.9694837 L60.8603609,76.9220146" id="Fill-3" fill="#FFFFFF"></path>
            <path d="M70.0580754,69.2587594 C70.0580754,67.0306853 70.0122512,66.6733172 68.6574027,66.5682291 L68.0832516,66.525783 C67.9454419,66.4419179 67.9912661,66.0640113 68.1290759,66 C69.2773781,66.042446 70.0580754,66.0640113 71.0230806,66.0640113 C71.9412507,66.0640113 72.7222849,66.042446 73.8709241,66 C74.0087339,66.0640113 74.0545581,66.4419179 73.9167484,66.525783 L73.3419234,66.5682291 C71.9874119,66.6733172 71.9412507,67.0306853 71.9412507,69.2587594 L71.9412507,76.7422675 C71.9412507,78.9699993 71.9874119,79.2640407 73.3419234,79.4115749 L73.9167484,79.474217 C74.0545581,79.5584244 74.0087339,79.936331 73.8709241,80 C72.7222849,79.957554 71.9412507,79.936331 71.0230806,79.936331 C70.0580754,79.936331 69.2773781,79.957554 68.1290759,80 C67.9912661,79.936331 67.9454419,79.6005281 68.0832516,79.474217 L68.6574027,79.4115749 C70.0122512,79.2640407 70.0580754,78.9699993 70.0580754,76.7422675 L70.0580754,69.2587594" id="Fill-4" fill="#FFFFFF"></path>
            <path d="M80.6213362,80 C78.4999129,80 77.1616074,79.4735505 76.6816994,79.2518355 C76.378141,78.8060994 76.050535,77.3700584 76,76.4186276 C76.1261632,76.2772967 76.5050012,76.2374341 76.6064197,76.3583396 C76.9849092,77.3904838 78.0200049,79.3717526 80.9496393,79.3717526 C83.0710626,79.3717526 84.1061583,78.2595538 84.1061583,77.0462161 C84.1061583,76.1567206 83.8792737,75.1650979 82.0352699,74.2139966 L79.6367755,72.9594785 C78.3737497,72.2923569 76.9089325,71.1389778 76.9089325,69.479904 C76.9089325,67.5582643 78.7780295,66 82.0607117,66 C82.843481,66 83.752762,66.1222233 84.4090196,66.2635542 C84.7376712,66.3445971 85.090719,66.3844597 85.2928589,66.3844597 C85.5204405,66.8707172 85.7480222,68.0033415 85.7480222,68.8529744 C85.6466037,68.9748682 85.2426724,69.0348268 85.1165093,68.9139213 C84.7882062,67.942724 84.1061583,66.6279179 81.6818736,66.6279179 C79.2074025,66.6279179 78.6769595,67.942724 78.6769595,68.8730704 C78.6769595,70.046875 79.8887534,70.8965079 80.8231276,71.3616811 L82.843481,72.3730704 C84.4344614,73.1617564 86,74.3349021 86,76.2568712 C86,78.4822572 83.9043669,80 80.6213362,80" id="Fill-5" fill="#FFFFFF"></path>
            <path d="M93.1643062,73.1470207 C92.0409766,73.1470207 91.9938613,73.1894667 91.9938613,73.8199956 L91.9938613,76.7840289 C91.9938613,78.99088 92.1111183,79.285606 93.4218466,79.4115749 L94.1005914,79.474217 C94.241229,79.5584244 94.1944679,79.936331 94.0541845,80 C92.789863,79.957554 91.9938613,79.936331 91.0813109,79.936331 C90.0741756,79.936331 89.2785281,79.9784347 88.3659778,80 C88.2253402,79.936331 88.178579,79.6005281 88.3192166,79.474217 L88.7166862,79.4115749 C90.028123,79.2013986 90.0741756,78.99088 90.0741756,76.7840289 L90.0741756,69.216998 C90.0741756,67.0094623 89.9108659,66.6524365 88.6933056,66.5682291 L88.0847025,66.525783 C87.9444192,66.4419179 87.9911803,66.0640113 88.1314637,66 C89.2785281,66.0215653 90.0741756,66.0640113 91.0813109,66.0640113 C91.9938613,66.0640113 92.789863,66.042446 93.7962898,66 C93.9372817,66.0640113 93.9836886,66.4419179 93.8434052,66.525783 L93.3984661,66.5682291 C92.0409766,66.6945402 91.9938613,67.0094623 91.9938613,69.216998 L91.9938613,71.633683 C91.9938613,72.2854349 92.0409766,72.3063156 93.1643062,72.3063156 L99.8589398,72.3063156 C100.982624,72.3063156 101.029739,72.2854349 101.029739,71.633683 L101.029739,69.216998 C101.029739,67.0094623 100.982624,66.6945402 99.6017536,66.5682291 L99.157523,66.525783 C99.0161769,66.4419179 99.0632923,66.0640113 99.2039299,66 C100.280853,66.042446 101.076854,66.0640113 102.036166,66.0640113 C102.94907,66.0640113 103.744718,66.042446 104.79826,66 C104.938543,66.0640113 104.985305,66.4419179 104.845021,66.525783 L104.353321,66.5682291 C102.996186,66.6945402 102.94907,67.0094623 102.94907,69.216998 L102.94907,76.7840289 C102.94907,78.99088 102.996186,79.2640407 104.353321,79.4115749 L104.915163,79.474217 C105.055446,79.5584244 105.009039,79.936331 104.868756,80 C103.744718,79.957554 102.94907,79.936331 102.036166,79.936331 C101.076854,79.936331 100.234091,79.957554 99.2039299,80 C99.0632923,79.936331 99.0161769,79.6005281 99.157523,79.474217 L99.6017536,79.4115749 C101.029739,79.2013986 101.029739,78.99088 101.029739,76.7840289 L101.029739,73.8199956 C101.029739,73.1894667 100.982624,73.1470207 99.8589398,73.1470207 L93.1643062,73.1470207" id="Fill-6" fill="#FFFFFF"></path>
            <path d="M3.38908147,85.210354 C5.35296995,83.7276626 7.85446928,83 10.6517088,83 C12.1043789,83 14.1485294,83.2855918 15.4128368,83.623811 C15.7356926,83.7016997 15.9240552,83.7539763 16.1659259,83.7276626 C16.1930414,84.3258615 16.3275345,85.9643303 16.5426512,87.5519258 C16.4081581,87.7333151 16.0046788,87.7596289 15.8163161,87.6038516 C15.4128368,85.8348667 14.2023989,83.8055512 10.3024606,83.8055512 C6.18668255,83.8055512 2.68950044,86.3285124 2.68950044,91.7130048 C2.68950044,97.1753859 6.2673061,100.193045 10.6784628,100.193045 C14.1485294,100.193045 15.681823,98.0076017 16.300419,96.4726337 C16.4887816,96.343521 16.8926224,96.3954467 17,96.5775378 C16.8119989,97.9300639 16.1124179,99.6464213 15.7089386,100.14147 C15.3860828,100.193045 15.0632271,100.297248 14.7674869,100.400748 C14.1752834,100.609504 12.238872,101 10.5175773,101 C8.09670147,101 5.78320325,100.531265 3.81931477,99.2562763 C1.66742519,97.8262124 0,95.4593794 0,92.1038516 C0,89.2160065 1.34493099,86.745322 3.38908147,85.210354" id="Fill-7" fill="#FFFFFF"></path>
            <path d="M31.7239173,94.1062478 C31.7239173,90.53018 30.0627441,86.6717261 25.7156662,86.6717261 C23.3485119,86.6717261 20.2760827,88.2103777 20.2760827,92.9576421 C20.2760827,96.1651959 21.9146645,100.327568 26.3979968,100.327568 C29.1294372,100.327568 31.7239173,98.3769855 31.7239173,94.1062478 Z M18,93.6509001 C18,89.3162725 21.413771,86 26.1021907,86 C31.3599841,86 34,89.6191317 34,93.4341687 C34,97.8125662 30.4951574,101 26.1021907,101 C21.0501908,101 18,97.5527709 18,93.6509001 Z" id="Fill-8" fill="#FFFFFF"></path>
            <path d="M58.366769,92.2373255 C58.366769,90.9591347 58.327192,88.5880858 57.9898737,87.9696388 C57.8516585,87.7221929 57.4948561,87.5774857 56.9995341,87.5361888 L56.5045165,87.4948918 C56.3854809,87.3501847 56.4250579,87.0829296 56.5434847,87 C57.2966664,87.0412969 58.0297552,87.0621133 58.8027255,87.0621133 C59.6353658,87.0621133 60.1702649,87.0412969 60.8838696,87.0003357 C61.0418734,87.1040817 61.0220848,87.3713368 60.9231422,87.4948918 L60.4476087,87.5361888 C59.9522867,87.5774857 59.5753913,87.7634899 59.4569646,88.0317521 C59.1796208,88.7116408 59.1796208,91.0830256 59.1796208,92.2373255 L59.1796208,94.5670776 C59.1796208,96.3609765 58.9019726,98.2572785 57.7925973,99.4945081 C56.9401685,100.46314 55.4736865,101 54.0072044,101 C52.6399695,101 51.2727345,100.731402 50.301879,99.8655091 C49.2515649,98.9589908 48.7559384,97.453499 48.7559384,95.0001919 L48.7559384,90.1338673 C48.7559384,87.9901194 48.7163614,87.6399348 47.5674091,87.5361888 L47.0717826,87.4948918 C46.9530514,87.4129694 46.992324,87.0627848 47.1113596,87 C48.1020037,87.0412969 48.7760314,87.0621133 49.5684857,87.0621133 C50.3810331,87.0621133 51.0349678,87.0412969 52.0058233,87.0003357 C52.1248589,87.0627848 52.164436,87.4129694 52.0457048,87.4948918 L51.5698669,87.5361888 C50.4206101,87.6399348 50.3810331,87.9901194 50.3810331,90.1338673 L50.3810331,94.5875582 C50.3810331,97.9067581 51.3716772,100.09281 54.4035838,100.09281 C57.2771823,100.09281 58.366769,97.7419061 58.366769,94.6083745 L58.366769,92.2373255" id="Fill-9" fill="#FFFFFF"></path>
            <path d="M87.204311,97.4683097 C87.204311,98.224471 87.2548972,99.2968576 87.7351156,99.7598412 C88.2153339,100.242822 88.9737768,100.348569 89.7318684,100.348569 C91.98085,100.348569 93.6997295,99.5069966 93.6997295,97.405268 C93.6997295,95.7444923 92.6887066,93.8112139 88.6699078,93.8112139 C87.3054835,93.8112139 87.204311,93.9369583 87.204311,94.3568973 L87.204311,97.4683097 Z M87.204311,92.5910521 C87.204311,93.1797802 87.2299554,93.221808 88.5185003,93.1797802 C91.096644,93.0957246 92.4867127,92.4656466 92.4867127,90.4886457 C92.4867127,88.428606 90.6417188,87.6510919 88.7208454,87.6510919 C88.1647476,87.6510919 87.7860531,87.6934586 87.5577123,87.7771752 C87.3054835,87.8405559 87.204311,87.9452864 87.204311,88.3238755 L87.204311,92.5910521 Z M85.1316787,89.7955261 C85.1316787,88.2398199 85.0308575,87.8405559 83.8937201,87.7565003 L83.084691,87.680918 C82.9923007,87.6005907 82.9434709,87.1789571 83.1096328,87.1670944 C84.475111,87.0691425 86.193288,87 88.5441447,87 C90.1362073,87 91.6523905,87.1050695 92.7902304,87.5877112 C93.8767815,88.0296809 94.7100499,88.8702368 94.7100499,90.215804 C94.7100499,91.7294824 93.6491433,92.5076744 92.1329601,93.0957246 C92.1329601,93.3062025 92.3342513,93.3692442 92.6128272,93.4116109 C93.9779541,93.621072 96,94.6727836 96,96.9216095 C96,99.3602382 93.8261952,101 89.2762406,101 C88.5441447,101 87.3054835,100.935942 86.2438743,100.935942 C85.1316787,100.935942 84.2731172,100.978308 83.337271,101 C83.1858635,100.935942 83.1349259,100.600058 83.2863335,100.474653 L83.7419613,100.411611 C85.0810925,100.221808 85.1316787,99.990994 85.1316787,97.7838571 L85.1316787,89.7955261 Z" id="Fill-10" fill="#FFFFFF"></path>
            <polygon id="Fill-11" fill="#F3B229" points="15 107 105 107 105 106 15 106"></polygon>
            <g id="Group-14" transform="translate(15.000000, 0.000000)">
                <mask id="mask-2" fill="white">
                    <use xlink:href="#path-1"></use>
                </mask>
                <g id="Clip-13"></g>
                <path d="M88.7630077,34.7856457 C84.0719234,14.8691969 66.0731226,0.0362283465 44.584908,0.0362283465 C22.7342146,0.0362283465 4.49160153,15.3730079 0.180386973,35.7966535 L9.76272031,30.3752677 L15.0461149,34.0458425 C15.0461149,34.0458425 18.1358812,32.6590079 18.7861609,32.2510157 L22.606682,36.2483228 C22.606682,36.2483228 30.8997088,42.7741654 31.1424981,42.7741654 C31.3869923,42.7741654 38.4599349,38.6952598 38.4599349,38.6952598 L44.8024636,34.3718976 L50.3296705,38.3688661 L54.4755019,39.1848504 L58.7028314,42.0401181 C58.7028314,42.0401181 68.9470383,35.2691417 70.57359,34.4531575 C70.57359,34.4531575 75.0443908,36.0854646 75.4505172,36.0035276 C75.8563027,35.9219291 82.8484291,30.538126 82.8484291,30.538126 L88.7630077,34.7856457" id="Fill-12" fill="#FCBA19" mask="url(#mask-2)"></path>
            </g>
            <g id="Group-17" transform="translate(57.000000, 0.000000)">
                <mask id="mask-4" fill="white">
                    <use xlink:href="#path-3"></use>
                </mask>
                <g id="Clip-16"></g>
                <path d="M2.83517647,22.6710303 C3.28623529,22.6710303 3.762,22.6814848 4.20635294,22.7058788 L5.87647059,0.165181818 C4.72305882,0.0811969697 3.55764706,0.0372878788 2.382,0.0372878788 C1.62105882,0.0372878788 0.864705882,0.0568030303 0.112941176,0.092 L1.22752941,22.7253939 C1.75870588,22.6905455 2.29482353,22.6710303 2.83517647,22.6710303" id="Fill-15" mask="url(#mask-4)"></path>
            </g>
            <g id="Group-20" transform="translate(41.000000, 2.000000)">
                <mask id="mask-6" fill="white">
                    <use xlink:href="#path-5"></use>
                </mask>
                <g id="Clip-19"></g>
                <path d="M11.988,23.8681212 L5.32733333,2.16692424 C3.59233333,2.74993939 1.90466667,3.44168182 0.27,4.23483333 L9.42966667,24.9686364 C10.253,24.5487121 11.112,24.182803 11.988,23.8681212" id="Fill-18" mask="url(#mask-6)"></path>
            </g>
            <g id="Group-23" transform="translate(26.000000, 10.000000)">
                <mask id="mask-8" fill="white">
                    <use xlink:href="#path-7"></use>
                </mask>
                <g id="Clip-22"></g>
                <path d="M18.9671818,19.7262069 L4.40178182,2.27793103 C2.95087273,3.48172414 1.57630909,4.7737931 0.284654545,6.14482759 L16.8951455,21.7355172 C17.5356182,21.0331034 18.2462182,20.3468966 18.9671818,19.7262069" id="Fill-21" mask="url(#mask-8)"></path>
            </g>
            <g id="Group-26" transform="translate(17.000000, 24.000000)">
                <mask id="mask-10" fill="white">
                    <use xlink:href="#path-9"></use>
                </mask>
                <g id="Clip-25"></g>
                <path d="M22.7439104,11.1349 L2.70335821,0.1841 C1.94161194,1.575 0.842074627,3.955 0.327149254,5.35815 L21.5887612,13.7648 C21.923806,12.86705 22.3086269,11.97665 22.7439104,11.1349" id="Fill-24" mask="url(#mask-10)"></path>
            </g>
            <g id="Group-29" transform="translate(67.000000, 3.000000)">
                <mask id="mask-12" fill="white">
                    <use xlink:href="#path-11"></use>
                </mask>
                <g id="Clip-28"></g>
                <path d="M2.89864865,21.8913538 L12.8854595,2.31676923 C11.1747297,1.50107692 9.40497297,0.783876923 7.58321622,0.1716 L0.116648649,20.8079385 C1.06143243,21.1088308 2.01113514,21.4835077 2.89864865,21.8913538" id="Fill-27" mask="url(#mask-12)"></path>
            </g>
            <g id="Group-32" transform="translate(75.000000, 11.000000)">
                <mask id="mask-14" fill="white">
                    <use xlink:href="#path-13"></use>
                </mask>
                <g id="Clip-31"></g>
                <path d="M2.31281818,17.9266909 L18.8366,3.93610909 C17.5853636,2.62374545 16.2519091,1.38338182 14.8428,0.2232 L0.226618182,16.0183636 C0.963127273,16.6117091 1.65887273,17.2525091 2.31281818,17.9266909" id="Fill-30" mask="url(#mask-14)"></path>
            </g>
            <g id="Group-35" transform="translate(80.000000, 25.000000)">
                <mask id="mask-16" fill="white">
                    <use xlink:href="#path-15"></use>
                </mask>
                <g id="Clip-34"></g>
                <path d="M1.46926154,12.9016216 L21.8615692,5.29240541 C21.2262769,3.50648649 20.4891077,1.77221622 19.6568308,0.096972973 L0.314769231,10.2292432 C0.749353846,11.0970811 1.13790769,11.9751081 1.46926154,12.9016216" id="Fill-33" mask="url(#mask-16)"></path>
            </g>
            <g id="Group-38" transform="translate(25.000000, 4.000000)">
                <mask id="mask-18" fill="white">
                    <use xlink:href="#path-17"></use>
                </mask>
                <g id="Clip-37"></g>
                <path d="M28.8780437,36.5446667 L35.2887233,32.0700598 L40.8753204,36.2068547 L45.065699,37.0513846 L49.3384515,40.0065385 C49.3384515,40.0065385 53.9982573,36.8526923 57.5623883,34.522 C56.9464806,32.8742906 56.158932,31.3127863 55.2193883,29.8620171 L70.6880825,17.6864188 L54.2433107,28.4652137 C52.7660971,26.5042222 50.9979903,24.7822222 49.0041311,23.365094 L58.7001117,6.4625812 L47.6130825,22.4487265 C45.5458107,21.1892906 43.2745,20.2420855 40.8591214,19.672641 L43.6357039,0.213760684 L39.2243981,19.3502479 C38.0149854,19.1557607 36.7748981,19.0534359 35.5113738,19.0534359 C34.1665097,19.0534359 32.8478398,19.1697778 31.5643252,19.3894957 L27.1437136,0.213760684 L29.928568,19.7315128 C27.5352476,20.3219829 25.2842718,21.2825043 23.2390583,22.5528034 L12.0793058,6.4625812 L21.8459417,23.4873932 C19.8865485,24.9066239 18.1501505,26.6233675 16.6991311,28.572094 L0.0920242718,17.6864188 L15.7209854,29.9888718 C14.820733,31.398641 14.0617913,32.910735 13.4648398,34.5034274 C15.3966602,36.0551197 21.2769078,40.766265 21.4819806,40.766265 C21.7291019,40.766265 28.8780437,36.5446667 28.8780437,36.5446667" id="Fill-36" fill="#FFFFFF" mask="url(#mask-18)"></path>
            </g>
            <polygon id="Path-2" fill="#FFFFFF" points="62.0840336 24 64 1 63.7478992 1 61.4789916 18.5238095 62.0840336 1 61.8319328 1 60.5210084 20.7142857 59.8151261 1 59.5630252 1 59.5630252 18.5238095 58.2521008 1 58 1 58.9579832 24"></polygon>
            <polygon id="Path-2-Copy" fill="#FFFFFF" transform="translate(48.000000, 15.500000) rotate(-20.000000) translate(-48.000000, -15.500000) " points="49.0840336 27 51 4 50.7478992 4 48.4789916 21.5238095 49.0840336 4 48.8319328 4 47.5210084 23.7142857 46.8151261 4 46.5630252 4 46.5630252 21.5238095 45.2521008 4 45 4 45.9579832 27"></polygon>
            <polygon id="Path-2-Copy-3" fill="#FFFFFF" transform="translate(37.000000, 22.500000) rotate(-45.000000) translate(-37.000000, -22.500000) " points="38.0840336 34 40 11 39.7478992 11 37.4789916 28.5238095 38.0840336 11 37.8319328 11 36.5210084 30.7142857 35.8151261 11 35.5630252 11 35.5630252 28.5238095 34.2521008 11 34 11 34.9579832 34"></polygon>
            <polygon id="Path-2-Copy-5" fill="#FFFFFF" transform="translate(83.000000, 22.500000) scale(-1, 1) rotate(-45.000000) translate(-83.000000, -22.500000) " points="84.0840336 34 86 11 85.7478992 11 83.4789916 28.5238095 84.0840336 11 83.8319328 11 82.5210084 30.7142857 81.8151261 11 81.5630252 11 81.5630252 28.5238095 80.2521008 11 80 11 80.9579832 34"></polygon>
            <polygon id="Path-2-Copy-4" fill="#FFFFFF" transform="translate(30.000000, 31.500000) rotate(-70.000000) translate(-30.000000, -31.500000) " points="31.0840336 43 33 20 32.7478992 20 30.4789916 37.5238095 31.0840336 20 30.8319328 20 29.5210084 39.7142857 28.8151261 20 28.5630252 20 28.5630252 37.5238095 27.2521008 20 27 20 27.9579832 43"></polygon>
            <polygon id="Path-2-Copy-6" fill="#FFFFFF" transform="translate(89.000000, 32.000000) scale(-1, 1) rotate(-70.000000) translate(-89.000000, -32.000000) " points="90.0840336 43 92 21 91.7478992 21 89.4789916 37.7619048 90.0840336 21 89.8319328 21 88.5210084 39.8571429 87.8151261 21 87.5630252 21 87.5630252 37.7619048 86.2521008 21 86 21 86.9579832 43"></polygon>
            <polygon id="Path-2-Copy-2" fill="#FFFFFF" transform="translate(73.000000, 15.500000) scale(-1, 1) rotate(-20.000000) translate(-73.000000, -15.500000) " points="74.0840336 27 76 4 75.7478992 4 73.4789916 21.5238095 74.0840336 4 73.8319328 4 72.5210084 23.7142857 71.8151261 4 71.5630252 4 71.5630252 21.5238095 70.2521008 4 70 4 70.9579832 27"></polygon>
            <path d="M35.4591424,72.6467828 C35.0380483,72.6467828 34.1955198,72.8032414 34.1955198,72.2461538 L34.1955198,68.2571359 C34.1955198,66.6976294 34.2455608,66.4744557 36.128059,66.4744557 C38.3325902,66.4744557 39.6956141,67.5882922 39.6956141,69.6385099 C39.6956141,70.5295114 39.3732406,71.3541364 38.5559028,71.9115627 C37.6146538,72.5577165 36.5985133,72.6467828 35.4591424,72.6467828 Z M43.915746,79.4801645 L43.3356778,79.4300435 C43.2182345,79.417852 43.1140673,79.4029511 43.0150064,79.387373 C42.1660099,79.2373488 41.8262752,78.4851959 41.4266273,77.7875665 L39.4202179,74.311611 C39.0736749,73.7321722 38.7019411,72.951911 37.9087728,72.8411708 C39.9652233,72.5959845 41.8235519,71.4150943 41.8235519,69.3875665 C41.8235519,67.0471214 39.4944285,66 37.1407953,66 C35.7290919,66 34.4419806,66.0379294 33.0050865,66.0379294 C32.212599,66.0379294 31.2699883,66 30.4771605,66 C30.0370031,66 30.0315565,66.0894049 30.0315565,66.3339139 C30.0315565,66.6959361 30.1850839,66.5950169 30.6511128,66.6207547 C32.3249362,66.7145622 32.2605976,67.0251089 32.2605976,68.4508466 L32.2605976,77.5647315 C32.2605976,78.8695694 32.373956,79.2590227 30.9976559,79.3816159 C30.9976559,79.3816159 30.7865982,79.4029511 30.6671124,79.41582 L30.0839805,79.4750847 C29.9447505,79.5997097 29.9913874,79.932269 30.1306174,79.9952588 C30.4403956,79.9840832 30.9905071,79.9620706 30.9905071,79.9620706 C31.7523572,79.9397194 32.5145477,79.8818094 33.2763977,79.8818094 C34.0426732,79.8818094 34.7762687,79.9403967 35.5296084,79.9620706 L35.5296084,79.9630866 C35.797175,79.971553 36.0790391,79.9806967 36.3891577,79.9918723 C36.5283877,79.9295597 36.5750246,79.5966618 36.4357946,79.4723754 L35.8489182,79.4171746 C35.7290919,79.4046444 35.5231405,79.3860184 35.5231405,79.3860184 C34.1328833,79.2922109 34.2179872,78.9020803 34.2179872,77.5647315 L34.2179872,74.1334785 C34.2179872,73.932656 34.1931368,73.3979197 34.341558,73.242477 C34.4658097,73.108031 34.6884415,73.1303822 34.8865634,73.1303822 C36.7697423,73.1303822 36.7445516,73.3088534 37.6367808,74.8683599 L40.0642842,79.2139816 C40.2620656,79.5485728 40.4111677,79.971553 40.9068127,79.971553 L43.0153468,79.971553 C43.2812114,79.9800194 43.5613734,79.9884857 43.8694495,80 C44.0086794,79.9376875 44.0553164,79.6047896 43.915746,79.4801645 Z" id="Fill-40" fill="#FFFFFF"></path>
            <path d="M36.1660975,90.2164706 C36.1660975,88.009854 36.1198534,87.6733501 34.6626491,87.5679145 L34.0837409,87.5258087 C33.9450085,87.4415972 33.9912527,87.0640145 34.1303276,87 C35.4258487,87.0421058 36.2126842,87.0629875 37.1379096,87.0629875 C38.0401842,87.0629875 38.8270197,87.0421058 39.9838084,87.0006846 C40.1228834,87.0640145 40.1691275,87.4415972 40.0303951,87.5258087 L39.4751228,87.5679145 C38.1100643,87.6733501 38.0634776,88.009854 38.0634776,90.2164706 L38.0634776,97.532264 C38.0634776,98.8563709 38.133015,99.402719 38.5492123,99.8018681 C38.8037264,100.032936 39.243217,100.285913 41.0714021,100.285913 C43.0383196,100.285913 43.5240544,100.202044 43.8946926,100.013082 C44.3574766,99.7601047 44.9586504,99.0032276 45.4214344,97.9314131 C45.5605094,97.8266621 46,97.9105313 46,98.0573881 C46,98.289141 45.3518969,100.433112 45.0281879,101 C43.8481059,100.958237 41.6496251,100.937355 39.2665104,100.937355 L37.1379096,100.937355 C36.1660975,100.937355 35.4258487,100.958237 34.1303276,101 C33.9912527,100.937355 33.9450085,100.600509 34.0837409,100.474876 L34.7780882,100.412231 C36.1198534,100.285913 36.1660975,99.9915153 36.1660975,97.7848986 L36.1660975,90.2164706" id="Fill-41" fill="#FFFFFF"></path>
            <path d="M99.0581727,90.2578918 C99.0581727,88.0303934 99.0124586,87.6733501 97.656965,87.5679145 L97.083114,87.5258087 C96.9456253,87.4415972 96.9909931,87.0640145 97.1295208,87 C98.2775691,87.0421058 99.0581727,87.0629875 100.023018,87.0629875 C100.941803,87.0629875 101.722407,87.0421058 102.871148,87.0006846 C103.008637,87.0640145 103.054697,87.4415972 102.916516,87.5258087 L102.342665,87.5679145 C100.987517,87.6733501 100.941803,88.0303934 100.941803,90.2578918 L100.941803,97.7427929 C100.941803,99.9702912 100.987517,100.265032 102.342665,100.412231 L102.916516,100.474876 C103.054697,100.559087 103.008637,100.937355 102.871148,101 C101.722407,100.958237 100.941803,100.937355 100.023018,100.937355 C99.0581727,100.937355 98.2775691,100.958237 97.1295208,101 C96.9909931,100.937355 96.9456253,100.600509 97.083114,100.474876 L97.656965,100.412231 C99.0124586,100.265032 99.0581727,99.9702912 99.0581727,97.7427929 L99.0581727,90.2578918" id="Fill-42" fill="#FFFFFF"></path>
            <path d="M80.317293,100.407936 C80.1993964,100.395971 79.980495,100.377854 79.980495,100.377854 C79.7391863,100.353925 79.5233874,100.320083 79.3520583,100.134806 C79.0555933,99.822366 79.0804137,98.9318764 79.0804137,98.5756806 L79.0804137,89.3771456 C79.0804137,88.9758271 78.9818218,88.1078989 79.277942,87.7958003 C79.426864,87.6310341 79.7350496,87.6040288 80.0097968,87.5876206 L80.0097968,87.5869369 C80.1766445,87.5742889 80.1807812,87.5742889 80.32729,87.5667684 L80.9147043,87.5254059 C81.0560422,87.4413136 81.0088147,87.0632401 80.8674767,87 C80.5537755,87.0112807 80.2683418,87.0071786 79.9970419,87.0157246 L79.9970419,87.0167501 L77.4991524,87.0167501 C77.2275078,87.0167501 76.9803388,87.0167501 76.832451,87.3062874 L71.7429065,97.8181663 L67.2469812,87.6628251 C67.098404,87.3062874 67.0739284,87.0167501 66.6044107,87.0167501 L64.0044821,87.0167501 C63.733527,87.008546 63.4346489,87.0112807 63.1209477,87 C62.9799545,87.0632401 62.9327269,87.4413136 63.0737201,87.5254059 L63.6614791,87.5667684 C63.7824782,87.5770236 64.002069,87.5913808 64.002069,87.5913808 C64.9769561,87.6535954 65.037628,87.8689537 64.9490332,88.8872909 L64.1833953,98.7534367 C64.1161736,99.744085 64.061362,100.26744 63.0154613,100.363497 C63.0154613,100.363497 62.7938021,100.391527 62.6724583,100.404175 L62.085044,100.467074 C61.9440508,100.592528 61.9912784,100.928556 62.1322716,100.991454 C62.4421809,100.980857 62.9923646,100.964107 62.9923646,100.964107 C63.5225542,100.938811 64.0634304,100.891637 64.6036171,100.891637 C65.1862052,100.891637 65.7701721,100.945648 66.3534497,100.969576 L66.3534497,100.969918 C66.6240601,100.978464 66.9101833,100.987352 67.2238845,100.999316 C67.3652225,100.936076 67.4121053,100.600391 67.2714568,100.474594 L66.6836978,100.411696 C66.5292603,100.39939 66.3558628,100.382639 66.3558628,100.382639 C64.8459599,100.28043 64.8793984,99.2224393 64.9735088,97.9302893 L65.6905403,88.7539739 L65.8632483,88.7539739 L70.7300995,100.045245 C70.7793954,100.200781 70.8531669,100.468783 71.1010254,100.468783 C71.3233741,100.468783 71.3971456,100.223685 71.4712618,100.067122 L76.9555185,88.4859724 L77.128916,88.4859724 L77.128916,98.5756806 C77.128916,98.9756318 77.1778672,99.8004883 76.7583348,100.112587 C76.5383992,100.273593 75.8251597,100.371359 75.8251597,100.371359 C75.7269126,100.386742 75.6234946,100.400073 75.506977,100.413063 L74.919218,100.47562 C74.7782248,100.601416 74.8251076,100.937444 74.9661008,101 C75.2756654,100.989403 75.8251597,100.971627 75.8251597,100.971627 C76.6211336,100.950433 77.4305518,100.891637 78.2403148,100.891637 C78.8218687,100.891637 79.9625692,100.946673 79.9625692,100.946673 C80.2335244,100.954877 80.5430889,100.983934 80.8571349,100.995556 C80.9984729,100.932658 81.0453557,100.596972 80.9043625,100.470834 L80.317293,100.407936" id="Fill-43" fill="#FFFFFF"></path>
            <path d="M113.654204,95.3466468 L110.865346,95.3466468 C110.768129,95.3466468 109.992495,95.433995 109.992495,95.214444 C109.992495,95.1486799 110.040753,95.0168144 110.064882,94.9517248 L111.738547,90.9542783 C111.787155,90.8446714 111.95676,90.2962999 112.150844,90.2962999 C112.296319,90.2962999 112.490053,90.8665928 112.538661,90.9542783 L114.187147,94.6876566 C114.187147,94.7311621 114.356752,95.0822413 114.356752,95.1706013 C114.356752,95.4124109 113.799679,95.3466468 113.654204,95.3466468 Z M119.913836,100.472538 L119.833754,100.409809 C119.714856,100.397331 119.609247,100.383504 119.509583,100.368327 C118.580779,100.168337 118.21814,99.0891309 117.875784,98.3212083 L113.097132,87.4131336 C113.049573,87.2826171 112.954804,87 112.765267,87 C112.50474,87 112.434101,87.3045384 112.363111,87.4778859 L107.797427,98.3650511 C107.631669,98.7771729 107.206084,99.7771247 106.897998,100.080989 C106.66265,100.31403 106.355614,100.358547 106.028644,100.390923 C106.028644,100.390923 105.770915,100.415205 105.647821,100.428021 L105.086552,100.482656 C104.943175,100.606764 104.991084,100.938283 105.134111,101 C105.452688,100.989545 106.017803,100.969985 106.017803,100.969985 C106.642368,100.961553 107.266932,100.885672 107.891846,100.885672 C108.417795,100.885672 108.943394,100.939632 109.469343,100.961891 C109.469343,100.961891 110.033759,100.981451 110.351986,100.99258 C110.495014,100.930526 110.542922,100.599008 110.399895,100.475236 L109.804006,100.412507 C109.685458,100.401041 109.480184,100.38148 109.480184,100.38148 C108.931504,100.323473 108.247141,100.228368 108.247141,99.6466082 C108.247141,99.255396 108.436329,98.7990942 108.577958,98.4510503 L109.287499,96.8221237 C109.642794,96.0396994 109.500816,95.9523511 110.446755,95.9523511 L113.664345,95.9523511 C114.799822,95.9523511 114.634064,95.9523511 115.131337,97.0612353 L115.888088,98.7120833 C116.006637,98.9947003 116.219254,99.4732607 116.219254,99.7771247 C116.219254,100.323135 115.600985,100.359221 115.02363,100.406774 C115.02363,100.406774 114.831994,100.422288 114.665887,100.434091 L114.092728,100.474562 C113.949351,100.598333 113.99726,100.929852 114.140287,100.991906 C114.458514,100.981114 115.02363,100.958855 115.02363,100.958855 C115.696453,100.935248 116.373822,100.885672 117.023565,100.885672 C117.852354,100.885672 118.681143,100.939632 119.509932,100.961891 L119.509932,100.961553 C119.781649,100.96931 119.551547,100.978753 119.865927,100.989545 C120.008605,100.927828 120.056863,100.59631 119.913836,100.472538 Z" id="Fill-44" fill="#FFFFFF"></path>
            <path d="M103.729195,34.3138539 L97.8744664,30.161275 C97.8744664,30.161275 90.8621287,35.4924017 90.4551703,35.5735422 C90.0478699,35.6543473 85.564146,34.03858 85.564146,34.03858 C83.9328926,34.846296 73.6590742,41.55111 73.6590742,41.55111 L69.4195253,38.7239363 L65.2617101,37.915885 L59.7185264,33.9574396 L53.3576642,38.2387703 C53.3576642,38.2387703 46.2642768,42.2780208 46.0190758,42.2780208 C45.7755848,42.2780208 37.4585864,35.8156223 37.4585864,35.8156223 L33.6270218,31.8571768 C32.9748625,32.2612025 29.876165,33.6348896 29.876165,33.6348896 L24.5774983,30 L15.0331271,35.3311268 C14.358739,38.3873042 14,41.5588217 14,44.813156 C14,47.6648059 14.2756374,50.4527505 14.7975017,53.1555312 C18.7956114,52.4413614 26.0866642,51.4264356 32.1185399,52.1731286 C40.9238884,53.2641655 46.4270602,54.7176519 55.7221266,56.7776798 C65.0161671,58.8377077 71.8653794,60.7763602 81.8933129,59.6859939 C91.2810565,58.6653681 98.0964126,56.7937738 104.344421,52.3843619 C104.77395,49.923326 105,47.3942261 105,44.813156 C105,41.1963721 104.558159,37.6815166 103.729195,34.3138539" id="Fill-39" fill="#5475A7"></path>
        </g>
    </g>
</svg>